<mxfile host="app.diagrams.net" modified="2023-11-30T15:10:21.272Z" agent="Mozilla/5.0 (Windows NT 10.0; Win64; x64) AppleWebKit/537.36 (KHTML, like Gecko) Chrome/119.0.0.0 Safari/537.36 Edg/119.0.0.0" etag="xetssbhd8xiIgaPP5HKi" version="22.1.5" type="device">
  <diagram name="Complex Component Diagram" id="QwERtYUiopAsDfGhJkLzxcVbnM0123456789">
    <mxGraphModel dx="1426" dy="751" grid="1" gridSize="10" guides="1" tooltips="1" connect="1" arrows="1" fold="1" page="1" pageScale="1" pageWidth="827" pageHeight="1169" math="0" shadow="0">
      <root>
        <mxCell id="0" />
        <mxCell id="1" parent="0" />
        <mxCell id="springSecurityConfig" value="SecurityConfig" style="rounded=0;whiteSpace=wrap;html=1;" parent="1" vertex="1">
          <mxGeometry x="650" y="290" width="160" height="60" as="geometry" />
        </mxCell>
        <mxCell id="database" value="H2 Database" style="rounded=0;whiteSpace=wrap;html=1;" parent="1" vertex="1">
          <mxGeometry x="260" y="535" width="120" height="60" as="geometry" />
        </mxCell>
        <mxCell id="jwtTokenFilter" value="JwtTokenFilter" style="rounded=0;whiteSpace=wrap;html=1;" parent="1" vertex="1">
          <mxGeometry x="660" y="190" width="140" height="60" as="geometry" />
        </mxCell>
        <mxCell id="userEntity" value="User Entity" style="shape=ellipse;whiteSpace=wrap;html=1;" parent="1" vertex="1">
          <mxGeometry x="570" y="450" width="100" height="40" as="geometry" />
        </mxCell>
        <mxCell id="phoneEntity" value="Phone Entity" style="shape=ellipse;whiteSpace=wrap;html=1;" parent="1" vertex="1">
          <mxGeometry x="440" y="450" width="100" height="40" as="geometry" />
        </mxCell>
        <mxCell id="relation1" style="exitX=0.5;exitY=1;exitDx=0;exitDy=0;" parent="1" source="Abpl-edJGg7bKdKjNS9Z-1" target="database" edge="1">
          <mxGeometry relative="1" as="geometry" />
        </mxCell>
        <mxCell id="relation2" parent="1" source="Abpl-edJGg7bKdKjNS9Z-20" target="springSecurityConfig" edge="1">
          <mxGeometry relative="1" as="geometry">
            <mxPoint x="791.25" y="190" as="sourcePoint" />
          </mxGeometry>
        </mxCell>
        <mxCell id="relation4" parent="1" source="jwtTokenFilter" target="springSecurityConfig" edge="1">
          <mxGeometry relative="1" as="geometry" />
        </mxCell>
        <mxCell id="relation5" parent="1" source="jwtTokenFilter" target="Abpl-edJGg7bKdKjNS9Z-20" edge="1">
          <mxGeometry relative="1" as="geometry">
            <mxPoint x="750" y="190" as="targetPoint" />
          </mxGeometry>
        </mxCell>
        <mxCell id="relation6" parent="1" source="userEntity" target="Abpl-edJGg7bKdKjNS9Z-20" edge="1">
          <mxGeometry relative="1" as="geometry">
            <mxPoint x="761.4285714285716" y="250" as="targetPoint" />
          </mxGeometry>
        </mxCell>
        <mxCell id="relation7" parent="1" source="phoneEntity" target="Abpl-edJGg7bKdKjNS9Z-20" edge="1">
          <mxGeometry relative="1" as="geometry">
            <mxPoint x="741.4285714285716" y="250" as="targetPoint" />
          </mxGeometry>
        </mxCell>
        <mxCell id="relation8" style="exitX=0.5;exitY=0;exitDx=0;exitDy=0;" parent="1" source="Abpl-edJGg7bKdKjNS9Z-19" target="jwtTokenFilter" edge="1">
          <mxGeometry relative="1" as="geometry">
            <mxPoint x="552.3529411764707" y="200" as="sourcePoint" />
          </mxGeometry>
        </mxCell>
        <mxCell id="Abpl-edJGg7bKdKjNS9Z-1" value="Repositories" style="rounded=0;whiteSpace=wrap;html=1;" parent="1" vertex="1">
          <mxGeometry x="260" y="440" width="120" height="60" as="geometry" />
        </mxCell>
        <mxCell id="Abpl-edJGg7bKdKjNS9Z-3" value="" style="ellipse;whiteSpace=wrap;html=1;aspect=fixed;" parent="1" vertex="1">
          <mxGeometry x="305" y="130" width="30" height="30" as="geometry" />
        </mxCell>
        <mxCell id="Abpl-edJGg7bKdKjNS9Z-4" value="" style="ellipse;whiteSpace=wrap;html=1;aspect=fixed;" parent="1" vertex="1">
          <mxGeometry x="245" y="250" width="30" height="30" as="geometry" />
        </mxCell>
        <mxCell id="Abpl-edJGg7bKdKjNS9Z-6" value="Browser / Postman" style="whiteSpace=wrap;html=1;" parent="1" vertex="1">
          <mxGeometry x="40" y="170" width="120" height="60" as="geometry" />
        </mxCell>
        <mxCell id="Abpl-edJGg7bKdKjNS9Z-8" value="" style="edgeStyle=none;orthogonalLoop=1;jettySize=auto;html=1;rounded=0;exitX=1;exitY=0.5;exitDx=0;exitDy=0;" parent="1" source="Abpl-edJGg7bKdKjNS9Z-6" target="Abpl-edJGg7bKdKjNS9Z-3" edge="1">
          <mxGeometry width="100" relative="1" as="geometry">
            <mxPoint x="1130" y="60" as="sourcePoint" />
            <mxPoint x="1230" y="60" as="targetPoint" />
            <Array as="points" />
          </mxGeometry>
        </mxCell>
        <mxCell id="Abpl-edJGg7bKdKjNS9Z-9" value="" style="edgeStyle=none;orthogonalLoop=1;jettySize=auto;html=1;rounded=0;entryX=0;entryY=0;entryDx=0;entryDy=15;entryPerimeter=0;" parent="1" source="Abpl-edJGg7bKdKjNS9Z-3" target="Abpl-edJGg7bKdKjNS9Z-19" edge="1">
          <mxGeometry width="100" relative="1" as="geometry">
            <mxPoint x="1160" y="140" as="sourcePoint" />
            <mxPoint x="420" y="160" as="targetPoint" />
            <Array as="points" />
          </mxGeometry>
        </mxCell>
        <mxCell id="Abpl-edJGg7bKdKjNS9Z-10" value="" style="html=1;verticalAlign=bottom;endArrow=open;dashed=1;endSize=8;curved=0;rounded=0;exitX=0;exitY=0;exitDx=0;exitDy=35;exitPerimeter=0;" parent="1" source="Abpl-edJGg7bKdKjNS9Z-19" target="Abpl-edJGg7bKdKjNS9Z-4" edge="1">
          <mxGeometry x="0.0557" y="8" relative="1" as="geometry">
            <mxPoint x="370" y="280" as="sourcePoint" />
            <mxPoint x="1110" y="219.5" as="targetPoint" />
            <mxPoint as="offset" />
          </mxGeometry>
        </mxCell>
        <mxCell id="Abpl-edJGg7bKdKjNS9Z-11" value="" style="html=1;verticalAlign=bottom;endArrow=open;dashed=1;endSize=8;curved=0;rounded=0;exitX=0;exitY=0.5;exitDx=0;exitDy=0;entryX=1;entryY=0.5;entryDx=0;entryDy=0;" parent="1" source="Abpl-edJGg7bKdKjNS9Z-4" target="Abpl-edJGg7bKdKjNS9Z-6" edge="1">
          <mxGeometry x="0.0557" y="8" relative="1" as="geometry">
            <mxPoint x="1210" y="172" as="sourcePoint" />
            <mxPoint x="190" y="170" as="targetPoint" />
            <mxPoint as="offset" />
          </mxGeometry>
        </mxCell>
        <mxCell id="Abpl-edJGg7bKdKjNS9Z-12" value="JSON" style="text;html=1;align=center;verticalAlign=middle;resizable=0;points=[];autosize=1;strokeColor=none;fillColor=none;" parent="1" vertex="1">
          <mxGeometry x="230" y="290" width="60" height="30" as="geometry" />
        </mxCell>
        <mxCell id="Abpl-edJGg7bKdKjNS9Z-13" value="HTTP&lt;br&gt;REQUEST" style="text;html=1;align=center;verticalAlign=middle;resizable=0;points=[];autosize=1;strokeColor=none;fillColor=none;" parent="1" vertex="1">
          <mxGeometry x="280" y="80" width="80" height="40" as="geometry" />
        </mxCell>
        <mxCell id="Abpl-edJGg7bKdKjNS9Z-21" value="" style="edgeStyle=orthogonalEdgeStyle;rounded=0;orthogonalLoop=1;jettySize=auto;html=1;" parent="1" source="Abpl-edJGg7bKdKjNS9Z-19" target="Abpl-edJGg7bKdKjNS9Z-20" edge="1">
          <mxGeometry relative="1" as="geometry" />
        </mxCell>
        <mxCell id="Abpl-edJGg7bKdKjNS9Z-19" value="UserController" style="shape=module;align=left;spacingLeft=20;align=center;verticalAlign=top;whiteSpace=wrap;html=1;" parent="1" vertex="1">
          <mxGeometry x="430" y="190" width="150" height="60" as="geometry" />
        </mxCell>
        <mxCell id="Abpl-edJGg7bKdKjNS9Z-22" value="" style="edgeStyle=orthogonalEdgeStyle;rounded=0;orthogonalLoop=1;jettySize=auto;html=1;" parent="1" source="Abpl-edJGg7bKdKjNS9Z-20" target="Abpl-edJGg7bKdKjNS9Z-1" edge="1">
          <mxGeometry relative="1" as="geometry" />
        </mxCell>
        <mxCell id="Abpl-edJGg7bKdKjNS9Z-20" value="UserService" style="shape=module;align=left;spacingLeft=20;align=center;verticalAlign=top;whiteSpace=wrap;html=1;" parent="1" vertex="1">
          <mxGeometry x="430" y="290" width="150" height="60" as="geometry" />
        </mxCell>
        <mxCell id="Abpl-edJGg7bKdKjNS9Z-23" value="COMPONENT DIAGRAM" style="text;html=1;align=center;verticalAlign=middle;resizable=0;points=[];autosize=1;strokeColor=none;fillColor=none;" parent="1" vertex="1">
          <mxGeometry x="40" y="60" width="160" height="30" as="geometry" />
        </mxCell>
      </root>
    </mxGraphModel>
  </diagram>
</mxfile>
